<svg width="199" height="12" viewBox="0 0 199 12" fill="none" xmlns="http://www.w3.org/2000/svg">
<path d="M0.928 12V0.48H11.44V1.776H2.224V5.584H9.632V6.896H2.224V12H0.928ZM14.3465 12C13.9945 12 13.6692 11.9147 13.3705 11.744C13.0825 11.5733 12.8532 11.344 12.6825 11.056C12.5118 10.7573 12.4265 10.432 12.4265 10.08V0.48H13.7225V10.08C13.7225 10.2507 13.7812 10.4 13.8985 10.528C14.0265 10.6453 14.1758 10.704 14.3465 10.704H22.0265C22.1972 10.704 22.3412 10.6453 22.4585 10.528C22.5865 10.4 22.6505 10.2507 22.6505 10.08V0.48H23.9465V10.08C23.9465 10.432 23.8612 10.7573 23.6905 11.056C23.5198 11.344 23.2852 11.5733 22.9865 11.744C22.6985 11.9147 22.3785 12 22.0265 12H14.3465ZM30.2525 12V1.776H25.1325V0.48H36.6525V1.776H31.5485V12H30.2525ZM39.7371 12C39.3851 12 39.0598 11.9147 38.7611 11.744C38.4731 11.5733 38.2438 11.344 38.0731 11.056C37.9025 10.7573 37.8171 10.432 37.8171 10.08V0.48H39.1131V10.08C39.1131 10.2507 39.1718 10.4 39.2891 10.528C39.4171 10.6453 39.5665 10.704 39.7371 10.704H47.4171C47.5878 10.704 47.7318 10.6453 47.8491 10.528C47.9771 10.4 48.0411 10.2507 48.0411 10.08V0.48H49.3371V10.08C49.3371 10.432 49.2518 10.7573 49.0811 11.056C48.9105 11.344 48.6758 11.5733 48.3771 11.744C48.0891 11.9147 47.7691 12 47.4171 12H39.7371ZM60.8271 12L57.0671 7.52H58.7631L62.5391 11.984V12H60.8271ZM51.0991 12V0.495999H60.6991C61.0511 0.495999 61.3711 0.586666 61.6591 0.768C61.9578 0.938666 62.1925 1.168 62.3631 1.456C62.5338 1.744 62.6191 2.064 62.6191 2.416V5.792C62.6191 6.144 62.5338 6.464 62.3631 6.752C62.1925 7.04 61.9578 7.27467 61.6591 7.456C61.3711 7.62667 61.0511 7.712 60.6991 7.712H52.3951V12H51.0991ZM53.0191 6.4H60.6991C60.8698 6.4 61.0138 6.34133 61.1311 6.224C61.2591 6.10667 61.3231 5.96267 61.3231 5.792V2.416C61.3231 2.24533 61.2591 2.10133 61.1311 1.984C61.0138 1.856 60.8698 1.792 60.6991 1.792H53.0191C52.8485 1.792 52.6991 1.856 52.5711 1.984C52.4538 2.10133 52.3951 2.24533 52.3951 2.416V5.792C52.3951 5.96267 52.4538 6.10667 52.5711 6.224C52.6991 6.34133 52.8485 6.4 53.0191 6.4ZM64.3343 12V0.48H74.8463V1.776H65.6303V5.584H73.0383V6.896H65.6303V10.704H74.8463V12H64.3343ZM82.7996 12C82.4476 12 82.1223 11.9147 81.8236 11.744C81.5356 11.5733 81.3063 11.344 81.1356 11.056C80.965 10.7573 80.8796 10.432 80.8796 10.08V2.4C80.8796 2.048 80.965 1.728 81.1356 1.44C81.3063 1.14133 81.5356 0.906666 81.8236 0.735999C82.1223 0.565333 82.4476 0.48 82.7996 0.48H90.4796C90.8316 0.48 91.1516 0.565333 91.4396 0.735999C91.7383 0.906666 91.973 1.14133 92.1436 1.44C92.3143 1.728 92.3996 2.048 92.3996 2.4V10.08C92.3996 10.432 92.3143 10.7573 92.1436 11.056C91.973 11.344 91.7383 11.5733 91.4396 11.744C91.1516 11.9147 90.8316 12 90.4796 12H82.7996ZM82.7996 10.704H90.4796C90.6503 10.704 90.7943 10.6453 90.9116 10.528C91.0396 10.4 91.1036 10.2507 91.1036 10.08V2.4C91.1036 2.22933 91.0396 2.08533 90.9116 1.968C90.7943 1.84 90.6503 1.776 90.4796 1.776H82.7996C82.629 1.776 82.4796 1.84 82.3516 1.968C82.2343 2.08533 82.1756 2.22933 82.1756 2.4V10.08C82.1756 10.2507 82.2343 10.4 82.3516 10.528C82.4796 10.6453 82.629 10.704 82.7996 10.704ZM94.1936 12V0.48H104.706V1.776H95.4896V5.584H102.898V6.896H95.4896V12H94.1936ZM110.116 12V0.48H120.628V1.776H111.412V5.584H118.82V6.896H111.412V10.704H120.628V12H110.116ZM124.174 12C123.822 12 123.496 11.9147 123.198 11.744C122.91 11.5733 122.68 11.344 122.51 11.056C122.339 10.7573 122.254 10.432 122.254 10.08V9.632H123.549V10.08C123.549 10.2507 123.608 10.4 123.726 10.528C123.854 10.6453 124.003 10.704 124.174 10.704H131.854C132.024 10.704 132.168 10.6453 132.286 10.528C132.414 10.4 132.478 10.2507 132.478 10.08V7.504C132.478 7.33333 132.414 7.18933 132.286 7.072C132.168 6.95467 132.024 6.896 131.854 6.896H124.174C123.822 6.896 123.496 6.81067 123.198 6.64C122.91 6.45867 122.68 6.224 122.51 5.936C122.339 5.648 122.254 5.328 122.254 4.976V2.4C122.254 2.048 122.339 1.728 122.51 1.44C122.68 1.14133 122.91 0.906666 123.198 0.735999C123.496 0.565333 123.822 0.48 124.174 0.48H131.854C132.206 0.48 132.526 0.565333 132.814 0.735999C133.112 0.906666 133.347 1.14133 133.518 1.44C133.688 1.728 133.774 2.048 133.774 2.4V2.848H132.478V2.4C132.478 2.22933 132.414 2.08533 132.286 1.968C132.168 1.84 132.024 1.776 131.854 1.776H124.174C124.003 1.776 123.854 1.84 123.726 1.968C123.608 2.08533 123.549 2.22933 123.549 2.4V4.976C123.549 5.14667 123.608 5.29067 123.726 5.408C123.854 5.52533 124.003 5.584 124.174 5.584H131.854C132.206 5.584 132.526 5.67467 132.814 5.856C133.112 6.02667 133.347 6.256 133.518 6.544C133.688 6.832 133.774 7.152 133.774 7.504V10.08C133.774 10.432 133.688 10.7573 133.518 11.056C133.347 11.344 133.112 11.5733 132.814 11.744C132.526 11.9147 132.206 12 131.854 12H124.174ZM135.49 12V0.495999H145.09C145.442 0.495999 145.762 0.586666 146.05 0.768C146.348 0.938666 146.583 1.168 146.754 1.456C146.924 1.744 147.01 2.064 147.01 2.416V5.792C147.01 6.144 146.924 6.464 146.754 6.752C146.583 7.04 146.348 7.27467 146.05 7.456C145.762 7.62667 145.442 7.712 145.09 7.712H136.786V12H135.49ZM137.41 6.4H145.09C145.26 6.4 145.404 6.34133 145.522 6.224C145.65 6.10667 145.714 5.96267 145.714 5.792V2.416C145.714 2.24533 145.65 2.10133 145.522 1.984C145.404 1.856 145.26 1.792 145.09 1.792H137.41C137.239 1.792 137.09 1.856 136.962 1.984C136.844 2.10133 136.786 2.24533 136.786 2.416V5.792C136.786 5.96267 136.844 6.10667 136.962 6.224C137.09 6.34133 137.239 6.4 137.41 6.4ZM150.034 12C149.682 12 149.357 11.9147 149.058 11.744C148.77 11.5733 148.541 11.344 148.37 11.056C148.199 10.7573 148.114 10.432 148.114 10.08V2.4C148.114 2.048 148.199 1.728 148.37 1.44C148.541 1.14133 148.77 0.906666 149.058 0.735999C149.357 0.565333 149.682 0.48 150.034 0.48H157.714C158.066 0.48 158.386 0.565333 158.674 0.735999C158.973 0.906666 159.207 1.14133 159.378 1.44C159.549 1.728 159.634 2.048 159.634 2.4V10.08C159.634 10.432 159.549 10.7573 159.378 11.056C159.207 11.344 158.973 11.5733 158.674 11.744C158.386 11.9147 158.066 12 157.714 12H150.034ZM150.034 10.704H157.714C157.885 10.704 158.029 10.6453 158.146 10.528C158.274 10.4 158.338 10.2507 158.338 10.08V2.4C158.338 2.22933 158.274 2.08533 158.146 1.968C158.029 1.84 157.885 1.776 157.714 1.776H150.034C149.863 1.776 149.714 1.84 149.586 1.968C149.469 2.08533 149.41 2.22933 149.41 2.4V10.08C149.41 10.2507 149.469 10.4 149.586 10.528C149.714 10.6453 149.863 10.704 150.034 10.704ZM171.124 12L167.364 7.52H169.06L172.836 11.984V12H171.124ZM161.396 12V0.495999H170.996C171.348 0.495999 171.668 0.586666 171.956 0.768C172.255 0.938666 172.489 1.168 172.66 1.456C172.831 1.744 172.916 2.064 172.916 2.416V5.792C172.916 6.144 172.831 6.464 172.66 6.752C172.489 7.04 172.255 7.27467 171.956 7.456C171.668 7.62667 171.348 7.712 170.996 7.712H162.692V12H161.396ZM163.316 6.4H170.996C171.167 6.4 171.311 6.34133 171.428 6.224C171.556 6.10667 171.62 5.96267 171.62 5.792V2.416C171.62 2.24533 171.556 2.10133 171.428 1.984C171.311 1.856 171.167 1.792 170.996 1.792H163.316C163.145 1.792 162.996 1.856 162.868 1.984C162.751 2.10133 162.692 2.24533 162.692 2.416V5.792C162.692 5.96267 162.751 6.10667 162.868 6.224C162.996 6.34133 163.145 6.4 163.316 6.4ZM179.143 12V1.776H174.023V0.48H185.543V1.776H180.439V12H179.143ZM188.58 12C188.228 12 187.902 11.9147 187.604 11.744C187.316 11.5733 187.086 11.344 186.916 11.056C186.745 10.7573 186.66 10.432 186.66 10.08V9.632H187.956V10.08C187.956 10.2507 188.014 10.4 188.132 10.528C188.26 10.6453 188.409 10.704 188.58 10.704H196.26C196.43 10.704 196.574 10.6453 196.692 10.528C196.82 10.4 196.884 10.2507 196.884 10.08V7.504C196.884 7.33333 196.82 7.18933 196.692 7.072C196.574 6.95467 196.43 6.896 196.26 6.896H188.58C188.228 6.896 187.902 6.81067 187.604 6.64C187.316 6.45867 187.086 6.224 186.916 5.936C186.745 5.648 186.66 5.328 186.66 4.976V2.4C186.66 2.048 186.745 1.728 186.916 1.44C187.086 1.14133 187.316 0.906666 187.604 0.735999C187.902 0.565333 188.228 0.48 188.58 0.48H196.26C196.612 0.48 196.932 0.565333 197.22 0.735999C197.518 0.906666 197.753 1.14133 197.924 1.44C198.094 1.728 198.18 2.048 198.18 2.4V2.848H196.884V2.4C196.884 2.22933 196.82 2.08533 196.692 1.968C196.574 1.84 196.43 1.776 196.26 1.776H188.58C188.409 1.776 188.26 1.84 188.132 1.968C188.014 2.08533 187.956 2.22933 187.956 2.4V4.976C187.956 5.14667 188.014 5.29067 188.132 5.408C188.26 5.52533 188.409 5.584 188.58 5.584H196.26C196.612 5.584 196.932 5.67467 197.22 5.856C197.518 6.02667 197.753 6.256 197.924 6.544C198.094 6.832 198.18 7.152 198.18 7.504V10.08C198.18 10.432 198.094 10.7573 197.924 11.056C197.753 11.344 197.518 11.5733 197.22 11.744C196.932 11.9147 196.612 12 196.26 12H188.58Z" fill="#57B8FF"/>
</svg>
