<svg width="12" height="18" viewBox="0 0 12 18" fill="none" xmlns="http://www.w3.org/2000/svg">
<path d="M9.689 16.0882L9.6934 16.0838C10.4711 15.3001 11.026 14.3234 11.3009 13.2541C11.5758 12.1848 11.5608 11.0616 11.2575 10L9.8029 11.4546C9.6657 11.5919 9.5027 11.7008 9.3233 11.7751C9.144 11.8494 8.9517 11.8877 8.7576 11.8877C8.5635 11.8877 8.3712 11.8494 8.1919 11.7751C8.0125 11.7008 7.8495 11.5919 7.7123 11.4546C7.4514 11.1938 7.2974 10.8448 7.2807 10.4763C7.2639 10.1078 7.3855 9.7463 7.6217 9.4629C8.108 8.8794 8.4136 8.1667 8.5012 7.4122C8.5887 6.6577 8.4545 5.8941 8.1148 5.2147L5.7575 0.5L5.395 4.4875C5.3515 4.9657 5.2119 5.4303 4.9845 5.8532C4.7571 6.2762 4.4466 6.6488 4.0717 6.9489L2.0109 8.5976C1.4639 9.0352 1.0223 9.5902 0.718797 10.2216C0.415397 10.853 0.257797 11.5445 0.257797 12.2451V12.8125C0.257797 13.4973 0.408397 14.1736 0.698797 14.7938C0.989197 15.4139 1.4125 15.9626 1.9385 16.4009C2.7902 17.1106 3.8665 17.4943 4.975 17.4834L6.4199 17.4691C7.6488 17.4568 8.8234 16.9606 9.689 16.0882Z" fill="#FDD04A"/>
</svg>
